# Blender v2.76 (sub 0) OBJ File: ''
# www.blender.org
mtllib Tube.mtl
o Circle.001
v -0.798945 0.401899 0.055777
v -0.986231 0.401899 0.074223
v -1.166321 0.401899 0.128852
v -1.332292 0.401899 0.217566
v -1.477767 0.401899 0.336954
v -1.597156 0.401899 0.482429
v -1.685869 0.401899 0.648401
v -1.740499 0.401899 0.828490
v -1.758945 0.401899 1.015777
v -1.740499 0.401899 1.203063
v -1.685869 0.401899 1.383153
v -1.597156 0.401899 1.549124
v -1.477767 0.401899 1.694599
v -1.332292 0.401899 1.813988
v -1.166321 0.401899 1.902701
v -0.986231 0.401899 1.957331
v -0.798944 0.401899 1.975777
v -0.611658 0.401899 1.957330
v -0.431568 0.401899 1.902701
v -0.265597 0.401899 1.813987
v -0.120122 0.401899 1.694599
v -0.000733 0.401899 1.549124
v 0.087980 0.401899 1.383152
v 0.142609 0.401899 1.203063
v 0.161055 0.401899 1.015776
v 0.142609 0.401899 0.828489
v 0.087979 0.401899 0.648400
v -0.000735 0.401899 0.482428
v -0.120123 0.401899 0.336953
v -0.265598 0.401899 0.217565
v -0.431570 0.401899 0.128852
v -0.611659 0.401899 0.074223
v -0.798945 2.319429 0.055777
v -0.986231 2.319429 0.074223
v -1.166321 2.319429 0.128852
v -1.332292 2.319429 0.217566
v -1.477767 2.319429 0.336954
v -1.597156 2.319429 0.482429
v -1.685869 2.319429 0.648401
v -1.740499 2.319429 0.828490
v -1.758945 2.319429 1.015777
v -1.740499 2.319429 1.203063
v -1.685869 2.319429 1.383153
v -1.597156 2.319429 1.549124
v -1.477767 2.319429 1.694599
v -1.332292 2.319429 1.813988
v -1.166321 2.319429 1.902701
v -0.986231 2.319429 1.957331
v -0.798944 2.319429 1.975777
v -0.611658 2.319429 1.957330
v -0.431568 2.319429 1.902701
v -0.265597 2.319429 1.813987
v -0.120122 2.319429 1.694599
v -0.000733 2.319429 1.549124
v 0.087980 2.319429 1.383152
v 0.142609 2.319429 1.203063
v 0.161055 2.319429 1.015776
v 0.142609 2.319429 0.828489
v 0.087979 2.319429 0.648400
v -0.000735 2.319429 0.482428
v -0.120123 2.319429 0.336953
v -0.265598 2.319429 0.217565
v -0.431570 2.319429 0.128852
v -0.611659 2.319429 0.074223
v -0.798945 2.319429 0.094177
v -0.978740 2.319429 0.111885
v -1.151626 2.319429 0.164329
v -1.310958 2.319429 0.249494
v -1.450614 2.319429 0.364107
v -1.565227 2.319429 0.503763
v -1.650392 2.319429 0.663096
v -1.702836 2.319429 0.835981
v -1.720545 2.319429 1.015777
v -1.702837 2.319429 1.195572
v -1.650392 2.319429 1.368458
v -1.565227 2.319429 1.527790
v -1.450614 2.319429 1.667446
v -1.310958 2.319429 1.782059
v -1.151626 2.319429 1.867224
v -0.978740 2.319429 1.919669
v -0.798944 2.319429 1.937377
v -0.619149 2.319429 1.919668
v -0.446263 2.319429 1.867224
v -0.286931 2.319429 1.782059
v -0.147275 2.319429 1.667446
v -0.032662 2.319429 1.527790
v 0.052503 2.319429 1.368457
v 0.104947 2.319429 1.195571
v 0.122655 2.319429 1.015776
v 0.104947 2.319429 0.835981
v 0.052502 2.319429 0.663095
v -0.032663 2.319429 0.503762
v -0.147276 2.319429 0.364106
v -0.286932 2.319429 0.249494
v -0.446265 2.319429 0.164329
v -0.619151 2.319429 0.111885
vn 0.956900 0.000000 -0.290300
vn -0.634400 0.000000 0.773000
vn 0.881900 0.000000 -0.471400
vn -0.471400 0.000000 0.881900
vn -0.098000 0.000000 -0.995200
vn 0.773000 0.000000 -0.634400
vn -0.290300 0.000000 0.956900
vn -0.290300 0.000000 -0.956900
vn 0.634400 0.000000 -0.773000
vn -0.098000 0.000000 0.995200
vn -0.471400 0.000000 -0.881900
vn 0.471400 0.000000 -0.881900
vn 0.098000 0.000000 0.995200
vn -0.634400 0.000000 -0.773000
vn 0.290300 0.000000 -0.956900
vn 0.290300 0.000000 0.956900
vn -0.773000 0.000000 -0.634400
vn 0.098000 0.000000 -0.995200
vn 0.471400 0.000000 0.881900
vn -0.881900 0.000000 -0.471400
vn 0.634400 0.000000 0.773000
vn -0.956900 0.000000 -0.290300
vn 0.773000 0.000000 0.634400
vn -0.995200 0.000000 -0.098000
vn 0.881900 0.000000 0.471400
vn -0.995200 0.000000 0.098000
vn 0.956900 0.000000 0.290300
vn -0.956900 0.000000 0.290300
vn 0.995200 0.000000 0.098000
vn -0.881900 0.000000 0.471400
vn 0.995200 0.000000 -0.098000
vn -0.773000 0.000000 0.634400
vn 0.000000 1.000000 -0.000000
usemtl None
s off
f 26//1 27//1 59//1 58//1
f 13//2 14//2 46//2 45//2
f 27//3 28//3 60//3 59//3
f 14//4 15//4 47//4 46//4
f 1//5 2//5 34//5 33//5
f 28//6 29//6 61//6 60//6
f 15//7 16//7 48//7 47//7
f 2//8 3//8 35//8 34//8
f 29//9 30//9 62//9 61//9
f 16//10 17//10 49//10 48//10
f 3//11 4//11 36//11 35//11
f 30//12 31//12 63//12 62//12
f 17//13 18//13 50//13 49//13
f 4//14 5//14 37//14 36//14
f 31//15 32//15 64//15 63//15
f 18//16 19//16 51//16 50//16
f 5//17 6//17 38//17 37//17
f 32//18 1//18 33//18 64//18
f 19//19 20//19 52//19 51//19
f 6//20 7//20 39//20 38//20
f 20//21 21//21 53//21 52//21
f 7//22 8//22 40//22 39//22
f 21//23 22//23 54//23 53//23
f 8//24 9//24 41//24 40//24
f 22//25 23//25 55//25 54//25
f 9//26 10//26 42//26 41//26
f 23//27 24//27 56//27 55//27
f 10//28 11//28 43//28 42//28
f 24//29 25//29 57//29 56//29
f 11//30 12//30 44//30 43//30
f 25//31 26//31 58//31 57//31
f 12//32 13//32 45//32 44//32
f 39//33 40//33 72//33 71//33
f 53//33 54//33 86//33 85//33
f 40//33 41//33 73//33 72//33
f 54//33 55//33 87//33 86//33
f 41//33 42//33 74//33 73//33
f 55//33 56//33 88//33 87//33
f 42//33 43//33 75//33 74//33
f 56//33 57//33 89//33 88//33
f 43//33 44//33 76//33 75//33
f 57//33 58//33 90//33 89//33
f 44//33 45//33 77//33 76//33
f 58//33 59//33 91//33 90//33
f 45//33 46//33 78//33 77//33
f 59//33 60//33 92//33 91//33
f 46//33 47//33 79//33 78//33
f 33//33 34//33 66//33 65//33
f 60//33 61//33 93//33 92//33
f 47//33 48//33 80//33 79//33
f 34//33 35//33 67//33 66//33
f 61//33 62//33 94//33 93//33
f 48//33 49//33 81//33 80//33
f 35//33 36//33 68//33 67//33
f 62//33 63//33 95//33 94//33
f 49//33 50//33 82//33 81//33
f 36//33 37//33 69//33 68//33
f 63//33 64//33 96//33 95//33
f 50//33 51//33 83//33 82//33
f 37//33 38//33 70//33 69//33
f 64//33 33//33 65//33 96//33
f 51//33 52//33 84//33 83//33
f 38//33 39//33 71//33 70//33
f 52//33 53//33 85//33 84//33
